<?xml version="1.0" encoding="utf-8"?>
<!-- Generator: Adobe Illustrator 19.0.0, SVG Export Plug-In . SVG Version: 6.00 Build 0)  -->
<svg version="1.1" id="Layer_1" xmlns="http://www.w3.org/2000/svg" xmlns:xlink="http://www.w3.org/1999/xlink" x="0px" y="0px"
	 viewBox="0 0 1080 1080" style="enable-background:new 0 0 1080 1080;" xml:space="preserve">
<g>
	<path d="M861.2,542.9c20.2-9.2,30.5-25.9,30.9-49.7c-0.5-16.7-6.4-29.8-17.6-38.9c-9.3-8-21.4-12.1-35.9-12.1h-60.8v169h30v-64
		h23.5l30.4,64H894L861.2,542.9z M862.9,492.7l0,1.5c-0.4,11.2-10,20-21.7,20h-33.4v-40h33.4C853.3,474.2,862.7,482.2,862.9,492.7z"
		/>
	<path d="M350.2,442.2h-33.9l-59.5,168.3l-0.2,0.7H289l13.5-40h61.6l14.7,40h31.7l-60.1-168.7L350.2,442.2z M354.2,540.2h-42.5
		l21.2-58.8L354.2,540.2z"/>
	<polygon points="538.8,472.2 578.8,472.2 578.8,611.2 609.8,611.2 609.8,472.2 649.8,472.2 649.8,442.2 538.8,442.2 	"/>
	<polygon points="667.8,611.2 759.8,611.2 759.8,580.2 698.8,580.2 698.8,541.2 759.8,541.2 759.8,511.2 698.8,511.2 698.8,472.2 
		759.8,472.2 759.8,442.2 667.8,442.2 	"/>
	<path d="M186.3,613.7h19.7l-5.6,24h13.4l11.7-21.3c1.8-3.3,2.8-7,2.8-10.7v-35h-42V613.7z"/>
	<polygon points="427.8,611.2 458.8,611.2 458.8,541.2 520.8,541.2 520.8,511.2 458.8,511.2 458.8,472.2 520.8,472.2 520.8,442.2 
		427.8,442.2 	"/>
</g>
</svg>
